<?xml version="1.0" encoding="UTF-8"?>
<svg id="G_L_Logo_Distributed_" data-name="G&amp;amp;L Logo (Distributed)" xmlns="http://www.w3.org/2000/svg" viewBox="0 0 600 303.424">
  <g id="Logo">
    <polygon points="467.658 5.689 508.176 5.689 508.176 153.028 600 153.028 600 189.863 467.658 189.863 467.658 5.689" fill="#fff"/>
    <path d="M277.821,74.907c-30.316,19.174-35.008,63.808-9.258,88.81,24.964,25.717,69.68,21.041,88.805-9.259-.499-.503-79.129-79.12-79.547-79.551M398.463,195.552l-31.736-31.734c-39.95,55.522-127.518,27.836-128.008-40.747,0-23.613,11.95-45.711,31.475-58.718C254.939,35.517,276.702-.357,309.384.003c11.782,0,22.857,4.585,31.187,12.914l9.616,9.616-9.201,9.201-9.62-9.616c-5.867-5.871-13.675-9.103-21.982-9.103-16.718-.347-31.432,14.381-31.09,31.09-.028,8.246,3.293,16.207,9.107,21.982l120.253,120.253-9.192,9.213Z" fill="#fa900f"/>
    <path d="M0,98.287v-.511C0,47.013,39.539,5.434,93.617,5.434c32.141,0,51.529,8.674,70.15,24.489l-24.744,29.845c-13.774-11.479-26.018-18.112-46.681-18.112-28.57,0-51.273,25.255-51.273,55.61v.51c0,32.652,22.448,56.63,54.08,56.63,14.285,0,27.04-3.571,36.988-10.714v-25.51h-39.54v-33.927h77.547v77.547c-18.365,15.56-43.62,28.315-76.272,28.315C38.263,190.119,0,151.09,0,98.287" fill="#fff"/>
  </g>
  <g>
    <path d="M1.445,295.86l4.001-4.303c1.635,1.86,3.524,3.373,5.664,4.538,2.14,1.166,4.353,1.748,6.639,1.748,3.093,0,5.602-.711,7.53-2.135,1.927-1.423,2.891-3.299,2.891-5.631,0-2.219-.874-4.089-2.622-5.614-1.748-1.524-4.605-2.7-8.572-3.53-4.796-1.008-8.421-2.656-10.875-4.942-2.454-2.286-3.681-5.12-3.681-8.504,0-3.765,1.384-6.83,4.151-9.194,2.767-2.364,6.359-3.546,10.774-3.546,5.916,0,10.846,1.995,14.791,5.983l-3.765,4.539c-3.496-3.295-7.071-4.942-10.723-4.942-2.6,0-4.717.628-6.353,1.882-1.636,1.255-2.454,2.869-2.454,4.841,0,2.129.885,3.899,2.656,5.311,1.77,1.412,4.482,2.533,8.135,3.362,5.244,1.188,9.048,2.958,11.413,5.311,2.364,2.353,3.546,5.356,3.546,9.009,0,3.966-1.496,7.188-4.488,9.664-2.992,2.477-7.009,3.715-12.051,3.715-3.25,0-6.348-.678-9.295-2.034-2.947-1.356-5.384-3.199-7.311-5.53Z" fill="#fff"/>
    <path d="M63.701,255.555l13.211,21.581,13.211-21.581h6.824l-16.875,27.766v19.295h-6.32v-19.295l-16.875-27.766h6.824Z" fill="#fff"/>
    <path d="M119.503,295.86l4.001-4.303c1.635,1.86,3.524,3.373,5.664,4.538,2.14,1.166,4.353,1.748,6.639,1.748,3.093,0,5.602-.711,7.53-2.135,1.927-1.423,2.891-3.299,2.891-5.631,0-2.219-.874-4.089-2.622-5.614-1.748-1.524-4.605-2.7-8.572-3.53-4.796-1.008-8.421-2.656-10.875-4.942-2.454-2.286-3.681-5.12-3.681-8.504,0-3.765,1.384-6.83,4.151-9.194,2.767-2.364,6.359-3.546,10.774-3.546,5.916,0,10.846,1.995,14.791,5.983l-3.765,4.539c-3.496-3.295-7.071-4.942-10.723-4.942-2.6,0-4.717.628-6.353,1.882-1.636,1.255-2.454,2.869-2.454,4.841,0,2.129.885,3.899,2.656,5.311,1.77,1.412,4.482,2.533,8.135,3.362,5.244,1.188,9.048,2.958,11.413,5.311,2.364,2.353,3.546,5.356,3.546,9.009,0,3.966-1.496,7.188-4.488,9.664-2.992,2.477-7.009,3.715-12.051,3.715-3.25,0-6.348-.678-9.295-2.034-2.947-1.356-5.384-3.199-7.311-5.53Z" fill="#fff"/>
    <path d="M189.659,302.617v-41.582h-13.211v-5.479h32.741v5.479h-13.211v41.582h-6.32Z" fill="#fff"/>
    <path d="M237.09,302.617v-47.062h27.8v5.479h-21.481v15.194h19.766v5.479h-19.766v15.429h22.086v5.479h-28.405Z" fill="#fff"/>
    <path d="M320.12,287.725h-4.034l-14.757-21.716v36.607h-6.118v-47.062h5.883l17.009,25.178,17.01-25.178h5.883v47.062h-6.118v-36.607l-14.757,21.716Z" fill="#fff"/>
    <path d="M372.459,302.617v-47.062h6.32v20.674h22.926v-20.674h6.32v47.062h-6.32v-20.909h-22.926v20.909h-6.32Z" fill="#fff"/>
    <path d="M478.011,302.617h-6.891l-4.37-12.135h-20.035l-4.37,12.135h-6.891l17.749-47.062h7.059l17.749,47.062ZM448.598,285.002h16.27l-8.135-22.455-8.135,22.455Z" fill="#fff"/>
    <path d="M537.14,255.555v30.624c0,3.407-.757,6.42-2.269,9.042-1.513,2.622-3.558,4.634-6.135,6.034-2.577,1.4-5.468,2.101-8.673,2.101s-6.096-.701-8.673-2.101c-2.577-1.4-4.622-3.412-6.135-6.034-1.513-2.622-2.269-5.636-2.269-9.042v-30.624h6.32v31.329c0,3.227,1.019,5.849,3.059,7.866,2.039,2.017,4.605,3.025,7.698,3.025s5.659-1.008,7.698-3.025c2.039-2.017,3.059-4.639,3.059-7.866v-31.329h6.32Z" fill="#fff"/>
    <path d="M566.015,295.86l4.001-4.303c1.635,1.86,3.524,3.373,5.664,4.538,2.14,1.166,4.353,1.748,6.639,1.748,3.093,0,5.602-.711,7.53-2.135,1.927-1.423,2.891-3.299,2.891-5.631,0-2.219-.874-4.089-2.622-5.614-1.748-1.524-4.605-2.7-8.572-3.53-4.796-1.008-8.421-2.656-10.875-4.942-2.454-2.286-3.681-5.12-3.681-8.504,0-3.765,1.384-6.83,4.151-9.194,2.767-2.364,6.359-3.546,10.774-3.546,5.916,0,10.846,1.995,14.791,5.983l-3.765,4.539c-3.496-3.295-7.071-4.942-10.723-4.942-2.6,0-4.717.628-6.353,1.882-1.636,1.255-2.454,2.869-2.454,4.841,0,2.129.885,3.899,2.656,5.311,1.77,1.412,4.482,2.533,8.135,3.362,5.244,1.188,9.048,2.958,11.413,5.311,2.364,2.353,3.546,5.356,3.546,9.009,0,3.966-1.496,7.188-4.488,9.664-2.992,2.477-7.009,3.715-12.051,3.715-3.25,0-6.348-.678-9.295-2.034-2.947-1.356-5.384-3.199-7.311-5.53Z" fill="#fff"/>
  </g>
</svg>